<mxfile host="app.diagrams.net" agent="Mozilla/5.0 (Windows NT 10.0; Win64; x64) AppleWebKit/537.36 (KHTML, like Gecko) Chrome/124.0.0.0 Safari/537.36 SLBrowser/9.0.6.2081 SLBChan/109 SLBVPV/64-bit" version="26.1.3">
  <diagram id="BD1VA4kNizTw94GDoU4U" name="第 4 页">
    <mxGraphModel dx="2121" dy="889" grid="1" gridSize="10" guides="1" tooltips="1" connect="1" arrows="1" fold="1" page="1" pageScale="1" pageWidth="827" pageHeight="1169" math="0" shadow="0">
      <root>
        <mxCell id="0" />
        <mxCell id="1" parent="0" />
        <mxCell id="J88-ZStobgBlJwA_pP0x-1" value="Structure" style="swimlane;fontStyle=1;align=center;verticalAlign=top;childLayout=stackLayout;horizontal=1;startSize=31;horizontalStack=0;resizeParent=1;resizeParentMax=0;resizeLast=0;collapsible=0;marginBottom=0;" parent="1" vertex="1">
          <mxGeometry x="620" y="779" width="182" height="212" as="geometry" />
        </mxCell>
        <mxCell id="J88-ZStobgBlJwA_pP0x-2" value="+Location" style="text;strokeColor=none;fillColor=none;align=left;verticalAlign=top;spacingLeft=4;spacingRight=4;overflow=hidden;rotatable=0;points=[[0,0.5],[1,0.5]];portConstraint=eastwest;" parent="J88-ZStobgBlJwA_pP0x-1" vertex="1">
          <mxGeometry y="31" width="182" height="38" as="geometry" />
        </mxCell>
        <mxCell id="LLlKz-jQ26lkk__jgeft-15" value="+Type" style="text;strokeColor=none;fillColor=none;align=left;verticalAlign=top;spacingLeft=4;spacingRight=4;overflow=hidden;rotatable=0;points=[[0,0.5],[1,0.5]];portConstraint=eastwest;" parent="J88-ZStobgBlJwA_pP0x-1" vertex="1">
          <mxGeometry y="69" width="182" height="33" as="geometry" />
        </mxCell>
        <mxCell id="J88-ZStobgBlJwA_pP0x-3" value="+BaseHP" style="text;strokeColor=none;fillColor=none;align=left;verticalAlign=top;spacingLeft=4;spacingRight=4;overflow=hidden;rotatable=0;points=[[0,0.5],[1,0.5]];portConstraint=eastwest;" parent="J88-ZStobgBlJwA_pP0x-1" vertex="1">
          <mxGeometry y="102" width="182" height="30" as="geometry" />
        </mxCell>
        <mxCell id="J88-ZStobgBlJwA_pP0x-4" value="+RespawnTime" style="text;strokeColor=none;fillColor=none;align=left;verticalAlign=top;spacingLeft=4;spacingRight=4;overflow=hidden;rotatable=0;points=[[0,0.5],[1,0.5]];portConstraint=eastwest;" parent="J88-ZStobgBlJwA_pP0x-1" vertex="1">
          <mxGeometry y="132" width="182" height="30" as="geometry" />
        </mxCell>
        <mxCell id="J88-ZStobgBlJwA_pP0x-5" style="line;strokeWidth=1;fillColor=none;align=left;verticalAlign=middle;spacingTop=-1;spacingLeft=3;spacingRight=3;rotatable=0;labelPosition=right;points=[];portConstraint=eastwest;strokeColor=inherit;" parent="J88-ZStobgBlJwA_pP0x-1" vertex="1">
          <mxGeometry y="162" width="182" height="8" as="geometry" />
        </mxCell>
        <mxCell id="J88-ZStobgBlJwA_pP0x-6" value="+StructureID(PK)" style="text;strokeColor=none;fillColor=none;align=left;verticalAlign=top;spacingLeft=4;spacingRight=4;overflow=hidden;rotatable=0;points=[[0,0.5],[1,0.5]];portConstraint=eastwest;" parent="J88-ZStobgBlJwA_pP0x-1" vertex="1">
          <mxGeometry y="170" width="182" height="42" as="geometry" />
        </mxCell>
        <mxCell id="J88-ZStobgBlJwA_pP0x-17" value="NeutralUnit" style="swimlane;fontStyle=1;align=center;verticalAlign=top;childLayout=stackLayout;horizontal=1;startSize=30;horizontalStack=0;resizeParent=1;resizeParentMax=0;resizeLast=0;collapsible=0;marginBottom=0;" parent="1" vertex="1">
          <mxGeometry x="760" y="509.99999999999994" width="173" height="184.34" as="geometry" />
        </mxCell>
        <mxCell id="LLlKz-jQ26lkk__jgeft-11" value="+Type" style="text;strokeColor=none;fillColor=none;align=left;verticalAlign=top;spacingLeft=4;spacingRight=4;overflow=hidden;rotatable=0;points=[[0,0.5],[1,0.5]];portConstraint=eastwest;" parent="J88-ZStobgBlJwA_pP0x-17" vertex="1">
          <mxGeometry y="30" width="173" height="28.67" as="geometry" />
        </mxCell>
        <mxCell id="J88-ZStobgBlJwA_pP0x-18" value="+RespawnInterval" style="text;strokeColor=none;fillColor=none;align=left;verticalAlign=top;spacingLeft=4;spacingRight=4;overflow=hidden;rotatable=0;points=[[0,0.5],[1,0.5]];portConstraint=eastwest;" parent="J88-ZStobgBlJwA_pP0x-17" vertex="1">
          <mxGeometry y="58.67" width="173" height="30" as="geometry" />
        </mxCell>
        <mxCell id="i6gBcuLC5pxXNLLgpZ5P-1" value="+BuffDuration" style="text;strokeColor=none;fillColor=none;align=left;verticalAlign=top;spacingLeft=4;spacingRight=4;overflow=hidden;rotatable=0;points=[[0,0.5],[1,0.5]];portConstraint=eastwest;" parent="J88-ZStobgBlJwA_pP0x-17" vertex="1">
          <mxGeometry y="88.67" width="173" height="30" as="geometry" />
        </mxCell>
        <mxCell id="J88-ZStobgBlJwA_pP0x-19" value="+BuffEffect" style="text;strokeColor=none;fillColor=none;align=left;verticalAlign=top;spacingLeft=4;spacingRight=4;overflow=hidden;rotatable=0;points=[[0,0.5],[1,0.5]];portConstraint=eastwest;" parent="J88-ZStobgBlJwA_pP0x-17" vertex="1">
          <mxGeometry y="118.67" width="173" height="30" as="geometry" />
        </mxCell>
        <mxCell id="J88-ZStobgBlJwA_pP0x-20" style="line;strokeWidth=1;fillColor=none;align=left;verticalAlign=middle;spacingTop=-1;spacingLeft=3;spacingRight=3;rotatable=0;labelPosition=right;points=[];portConstraint=eastwest;strokeColor=inherit;" parent="J88-ZStobgBlJwA_pP0x-17" vertex="1">
          <mxGeometry y="148.67000000000002" width="173" height="3.67" as="geometry" />
        </mxCell>
        <mxCell id="J88-ZStobgBlJwA_pP0x-21" value="+UnitID(PK)" style="text;strokeColor=none;fillColor=none;align=left;verticalAlign=top;spacingLeft=4;spacingRight=4;overflow=hidden;rotatable=0;points=[[0,0.5],[1,0.5]];portConstraint=eastwest;" parent="J88-ZStobgBlJwA_pP0x-17" vertex="1">
          <mxGeometry y="152.34" width="173" height="32" as="geometry" />
        </mxCell>
        <mxCell id="J88-ZStobgBlJwA_pP0x-36" value="Team" style="swimlane;fontStyle=1;align=center;verticalAlign=top;childLayout=stackLayout;horizontal=1;startSize=28;horizontalStack=0;resizeParent=1;resizeParentMax=0;resizeLast=0;collapsible=0;marginBottom=0;" parent="1" vertex="1">
          <mxGeometry x="100" y="32" width="134" height="164" as="geometry" />
        </mxCell>
        <mxCell id="MwXPO-5lnD02g6y1rOQa-11" value="+Outcome" style="text;strokeColor=none;fillColor=none;align=left;verticalAlign=top;spacingLeft=4;spacingRight=4;overflow=hidden;rotatable=0;points=[[0,0.5],[1,0.5]];portConstraint=eastwest;" parent="J88-ZStobgBlJwA_pP0x-36" vertex="1">
          <mxGeometry y="28" width="134" height="32" as="geometry" />
        </mxCell>
        <mxCell id="J88-ZStobgBlJwA_pP0x-37" value="+Side" style="text;strokeColor=none;fillColor=none;align=left;verticalAlign=top;spacingLeft=4;spacingRight=4;overflow=hidden;rotatable=0;points=[[0,0.5],[1,0.5]];portConstraint=eastwest;" parent="J88-ZStobgBlJwA_pP0x-36" vertex="1">
          <mxGeometry y="60" width="134" height="32" as="geometry" />
        </mxCell>
        <mxCell id="J88-ZStobgBlJwA_pP0x-38" style="line;strokeWidth=1;fillColor=none;align=left;verticalAlign=middle;spacingTop=-1;spacingLeft=3;spacingRight=3;rotatable=0;labelPosition=right;points=[];portConstraint=eastwest;strokeColor=inherit;" parent="J88-ZStobgBlJwA_pP0x-36" vertex="1">
          <mxGeometry y="92" width="134" height="8" as="geometry" />
        </mxCell>
        <mxCell id="J88-ZStobgBlJwA_pP0x-39" value="+TeamID(PK)" style="text;strokeColor=none;fillColor=none;align=left;verticalAlign=top;spacingLeft=4;spacingRight=4;overflow=hidden;rotatable=0;points=[[0,0.5],[1,0.5]];portConstraint=eastwest;" parent="J88-ZStobgBlJwA_pP0x-36" vertex="1">
          <mxGeometry y="100" width="134" height="32" as="geometry" />
        </mxCell>
        <mxCell id="zNm2vamDv0chiTJ7JFwZ-5" value="+MatchID(FK)" style="text;strokeColor=none;fillColor=none;align=left;verticalAlign=top;spacingLeft=4;spacingRight=4;overflow=hidden;rotatable=0;points=[[0,0.5],[1,0.5]];portConstraint=eastwest;" parent="J88-ZStobgBlJwA_pP0x-36" vertex="1">
          <mxGeometry y="132" width="134" height="32" as="geometry" />
        </mxCell>
        <mxCell id="J88-ZStobgBlJwA_pP0x-40" value="Player" style="swimlane;fontStyle=1;align=center;verticalAlign=top;childLayout=stackLayout;horizontal=1;startSize=40;horizontalStack=0;resizeParent=1;resizeParentMax=0;resizeLast=0;collapsible=0;marginBottom=0;" parent="1" vertex="1">
          <mxGeometry x="30" y="261" width="152" height="208" as="geometry" />
        </mxCell>
        <mxCell id="J88-ZStobgBlJwA_pP0x-41" value="+Username" style="text;strokeColor=none;fillColor=none;align=left;verticalAlign=top;spacingLeft=4;spacingRight=4;overflow=hidden;rotatable=0;points=[[0,0.5],[1,0.5]];portConstraint=eastwest;" parent="J88-ZStobgBlJwA_pP0x-40" vertex="1">
          <mxGeometry y="40" width="152" height="40" as="geometry" />
        </mxCell>
        <mxCell id="J88-ZStobgBlJwA_pP0x-42" value="+AccountLevel" style="text;strokeColor=none;fillColor=none;align=left;verticalAlign=top;spacingLeft=4;spacingRight=4;overflow=hidden;rotatable=0;points=[[0,0.5],[1,0.5]];portConstraint=eastwest;" parent="J88-ZStobgBlJwA_pP0x-40" vertex="1">
          <mxGeometry y="80" width="152" height="40" as="geometry" />
        </mxCell>
        <mxCell id="zNm2vamDv0chiTJ7JFwZ-1" value="+Rank" style="text;strokeColor=none;fillColor=none;align=left;verticalAlign=top;spacingLeft=4;spacingRight=4;overflow=hidden;rotatable=0;points=[[0,0.5],[1,0.5]];portConstraint=eastwest;" parent="J88-ZStobgBlJwA_pP0x-40" vertex="1">
          <mxGeometry y="120" width="152" height="40" as="geometry" />
        </mxCell>
        <mxCell id="J88-ZStobgBlJwA_pP0x-43" style="line;strokeWidth=1;fillColor=none;align=left;verticalAlign=middle;spacingTop=-1;spacingLeft=3;spacingRight=3;rotatable=0;labelPosition=right;points=[];portConstraint=eastwest;strokeColor=inherit;" parent="J88-ZStobgBlJwA_pP0x-40" vertex="1">
          <mxGeometry y="160" width="152" height="8" as="geometry" />
        </mxCell>
        <mxCell id="J88-ZStobgBlJwA_pP0x-44" value="+PlayerID(PK)" style="text;strokeColor=none;fillColor=none;align=left;verticalAlign=top;spacingLeft=4;spacingRight=4;overflow=hidden;rotatable=0;points=[[0,0.5],[1,0.5]];portConstraint=eastwest;" parent="J88-ZStobgBlJwA_pP0x-40" vertex="1">
          <mxGeometry y="168" width="152" height="40" as="geometry" />
        </mxCell>
        <mxCell id="J88-ZStobgBlJwA_pP0x-45" value="Champion" style="swimlane;fontStyle=1;align=center;verticalAlign=top;childLayout=stackLayout;horizontal=1;startSize=40;horizontalStack=0;resizeParent=1;resizeParentMax=0;resizeLast=0;collapsible=0;marginBottom=0;" parent="1" vertex="1">
          <mxGeometry x="-364" y="820" width="184" height="288" as="geometry" />
        </mxCell>
        <mxCell id="J88-ZStobgBlJwA_pP0x-46" value="+Name" style="text;strokeColor=none;fillColor=none;align=left;verticalAlign=top;spacingLeft=4;spacingRight=4;overflow=hidden;rotatable=0;points=[[0,0.5],[1,0.5]];portConstraint=eastwest;" parent="J88-ZStobgBlJwA_pP0x-45" vertex="1">
          <mxGeometry y="40" width="184" height="40" as="geometry" />
        </mxCell>
        <mxCell id="J88-ZStobgBlJwA_pP0x-47" value="+DefaultRole" style="text;strokeColor=none;fillColor=none;align=left;verticalAlign=top;spacingLeft=4;spacingRight=4;overflow=hidden;rotatable=0;points=[[0,0.5],[1,0.5]];portConstraint=eastwest;" parent="J88-ZStobgBlJwA_pP0x-45" vertex="1">
          <mxGeometry y="80" width="184" height="40" as="geometry" />
        </mxCell>
        <mxCell id="2ZnopNHrlmIwXBJzYE-5-1" value="+BaseHP" style="text;strokeColor=none;fillColor=none;align=left;verticalAlign=top;spacingLeft=4;spacingRight=4;overflow=hidden;rotatable=0;points=[[0,0.5],[1,0.5]];portConstraint=eastwest;" parent="J88-ZStobgBlJwA_pP0x-45" vertex="1">
          <mxGeometry y="120" width="184" height="40" as="geometry" />
        </mxCell>
        <mxCell id="MwXPO-5lnD02g6y1rOQa-3" value="+BaseMP" style="text;strokeColor=none;fillColor=none;align=left;verticalAlign=top;spacingLeft=4;spacingRight=4;overflow=hidden;rotatable=0;points=[[0,0.5],[1,0.5]];portConstraint=eastwest;" parent="J88-ZStobgBlJwA_pP0x-45" vertex="1">
          <mxGeometry y="160" width="184" height="40" as="geometry" />
        </mxCell>
        <mxCell id="2ZnopNHrlmIwXBJzYE-5-2" value="+Abilities" style="text;strokeColor=none;fillColor=none;align=left;verticalAlign=top;spacingLeft=4;spacingRight=4;overflow=hidden;rotatable=0;points=[[0,0.5],[1,0.5]];portConstraint=eastwest;" parent="J88-ZStobgBlJwA_pP0x-45" vertex="1">
          <mxGeometry y="200" width="184" height="40" as="geometry" />
        </mxCell>
        <mxCell id="J88-ZStobgBlJwA_pP0x-48" style="line;strokeWidth=1;fillColor=none;align=left;verticalAlign=middle;spacingTop=-1;spacingLeft=3;spacingRight=3;rotatable=0;labelPosition=right;points=[];portConstraint=eastwest;strokeColor=inherit;" parent="J88-ZStobgBlJwA_pP0x-45" vertex="1">
          <mxGeometry y="240" width="184" height="8" as="geometry" />
        </mxCell>
        <mxCell id="J88-ZStobgBlJwA_pP0x-49" value="+ChampionID(PK)" style="text;strokeColor=none;fillColor=none;align=left;verticalAlign=top;spacingLeft=4;spacingRight=4;overflow=hidden;rotatable=0;points=[[0,0.5],[1,0.5]];portConstraint=eastwest;" parent="J88-ZStobgBlJwA_pP0x-45" vertex="1">
          <mxGeometry y="248" width="184" height="40" as="geometry" />
        </mxCell>
        <mxCell id="J88-ZStobgBlJwA_pP0x-50" value="Match" style="swimlane;fontStyle=1;align=center;verticalAlign=top;childLayout=stackLayout;horizontal=1;startSize=33;horizontalStack=0;resizeParent=1;resizeParentMax=0;resizeLast=0;collapsible=0;marginBottom=0;" parent="1" vertex="1">
          <mxGeometry x="193" y="537" width="142" height="154" as="geometry" />
        </mxCell>
        <mxCell id="2ZnopNHrlmIwXBJzYE-5-3" value="+StartTime" style="text;strokeColor=none;fillColor=none;align=left;verticalAlign=top;spacingLeft=4;spacingRight=4;overflow=hidden;rotatable=0;points=[[0,0.5],[1,0.5]];portConstraint=eastwest;" parent="J88-ZStobgBlJwA_pP0x-50" vertex="1">
          <mxGeometry y="33" width="142" height="27" as="geometry" />
        </mxCell>
        <mxCell id="J88-ZStobgBlJwA_pP0x-51" value="+Duration" style="text;strokeColor=none;fillColor=none;align=left;verticalAlign=top;spacingLeft=4;spacingRight=4;overflow=hidden;rotatable=0;points=[[0,0.5],[1,0.5]];portConstraint=eastwest;" parent="J88-ZStobgBlJwA_pP0x-50" vertex="1">
          <mxGeometry y="60" width="142" height="27" as="geometry" />
        </mxCell>
        <mxCell id="2ZnopNHrlmIwXBJzYE-5-4" value="+GameMode" style="text;strokeColor=none;fillColor=none;align=left;verticalAlign=top;spacingLeft=4;spacingRight=4;overflow=hidden;rotatable=0;points=[[0,0.5],[1,0.5]];portConstraint=eastwest;" parent="J88-ZStobgBlJwA_pP0x-50" vertex="1">
          <mxGeometry y="87" width="142" height="27" as="geometry" />
        </mxCell>
        <mxCell id="J88-ZStobgBlJwA_pP0x-52" style="line;strokeWidth=1;fillColor=none;align=left;verticalAlign=middle;spacingTop=-1;spacingLeft=3;spacingRight=3;rotatable=0;labelPosition=right;points=[];portConstraint=eastwest;strokeColor=inherit;" parent="J88-ZStobgBlJwA_pP0x-50" vertex="1">
          <mxGeometry y="114" width="142" height="8" as="geometry" />
        </mxCell>
        <mxCell id="J88-ZStobgBlJwA_pP0x-53" value="+MatchID(PK)" style="text;strokeColor=none;fillColor=none;align=left;verticalAlign=top;spacingLeft=4;spacingRight=4;overflow=hidden;rotatable=0;points=[[0,0.5],[1,0.5]];portConstraint=eastwest;" parent="J88-ZStobgBlJwA_pP0x-50" vertex="1">
          <mxGeometry y="122" width="142" height="32" as="geometry" />
        </mxCell>
        <mxCell id="J88-ZStobgBlJwA_pP0x-54" value="Item" style="swimlane;fontStyle=1;align=center;verticalAlign=top;childLayout=stackLayout;horizontal=1;startSize=25;horizontalStack=0;resizeParent=1;resizeParentMax=0;resizeLast=0;collapsible=0;marginBottom=0;" parent="1" vertex="1">
          <mxGeometry x="117.5" y="1241" width="126" height="150" as="geometry" />
        </mxCell>
        <mxCell id="J88-ZStobgBlJwA_pP0x-55" value="+Name" style="text;strokeColor=none;fillColor=none;align=left;verticalAlign=top;spacingLeft=4;spacingRight=4;overflow=hidden;rotatable=0;points=[[0,0.5],[1,0.5]];portConstraint=eastwest;" parent="J88-ZStobgBlJwA_pP0x-54" vertex="1">
          <mxGeometry y="25" width="126" height="25" as="geometry" />
        </mxCell>
        <mxCell id="J88-ZStobgBlJwA_pP0x-56" value="+Cost" style="text;strokeColor=none;fillColor=none;align=left;verticalAlign=top;spacingLeft=4;spacingRight=4;overflow=hidden;rotatable=0;points=[[0,0.5],[1,0.5]];portConstraint=eastwest;" parent="J88-ZStobgBlJwA_pP0x-54" vertex="1">
          <mxGeometry y="50" width="126" height="20" as="geometry" />
        </mxCell>
        <mxCell id="yY5rZKNKcghdrGWt7z1o-6" value="+StatBonus" style="text;strokeColor=none;fillColor=none;align=left;verticalAlign=top;spacingLeft=4;spacingRight=4;overflow=hidden;rotatable=0;points=[[0,0.5],[1,0.5]];portConstraint=eastwest;" parent="J88-ZStobgBlJwA_pP0x-54" vertex="1">
          <mxGeometry y="70" width="126" height="20" as="geometry" />
        </mxCell>
        <mxCell id="zNm2vamDv0chiTJ7JFwZ-7" value="+Effect" style="text;strokeColor=none;fillColor=none;align=left;verticalAlign=top;spacingLeft=4;spacingRight=4;overflow=hidden;rotatable=0;points=[[0,0.5],[1,0.5]];portConstraint=eastwest;" parent="J88-ZStobgBlJwA_pP0x-54" vertex="1">
          <mxGeometry y="90" width="126" height="20" as="geometry" />
        </mxCell>
        <mxCell id="J88-ZStobgBlJwA_pP0x-57" style="line;strokeWidth=1;fillColor=none;align=left;verticalAlign=middle;spacingTop=-1;spacingLeft=3;spacingRight=3;rotatable=0;labelPosition=right;points=[];portConstraint=eastwest;strokeColor=inherit;" parent="J88-ZStobgBlJwA_pP0x-54" vertex="1">
          <mxGeometry y="110" width="126" height="8" as="geometry" />
        </mxCell>
        <mxCell id="J88-ZStobgBlJwA_pP0x-58" value="+ItemID(PK)" style="text;strokeColor=none;fillColor=none;align=left;verticalAlign=top;spacingLeft=4;spacingRight=4;overflow=hidden;rotatable=0;points=[[0,0.5],[1,0.5]];portConstraint=eastwest;" parent="J88-ZStobgBlJwA_pP0x-54" vertex="1">
          <mxGeometry y="118" width="126" height="32" as="geometry" />
        </mxCell>
        <mxCell id="J88-ZStobgBlJwA_pP0x-59" value="Rune" style="swimlane;fontStyle=1;align=center;verticalAlign=top;childLayout=stackLayout;horizontal=1;startSize=27;horizontalStack=0;resizeParent=1;resizeParentMax=0;resizeLast=0;collapsible=0;marginBottom=0;" parent="1" vertex="1">
          <mxGeometry x="-90" y="1241" width="131" height="150" as="geometry" />
        </mxCell>
        <mxCell id="2ZnopNHrlmIwXBJzYE-5-5" value="+Name" style="text;strokeColor=none;fillColor=none;align=left;verticalAlign=top;spacingLeft=4;spacingRight=4;overflow=hidden;rotatable=0;points=[[0,0.5],[1,0.5]];portConstraint=eastwest;" parent="J88-ZStobgBlJwA_pP0x-59" vertex="1">
          <mxGeometry y="27" width="131" height="33" as="geometry" />
        </mxCell>
        <mxCell id="2ZnopNHrlmIwXBJzYE-5-6" value="+Type" style="text;strokeColor=none;fillColor=none;align=left;verticalAlign=top;spacingLeft=4;spacingRight=4;overflow=hidden;rotatable=0;points=[[0,0.5],[1,0.5]];portConstraint=eastwest;" parent="J88-ZStobgBlJwA_pP0x-59" vertex="1">
          <mxGeometry y="60" width="131" height="30" as="geometry" />
        </mxCell>
        <mxCell id="J88-ZStobgBlJwA_pP0x-60" value="+Effect" style="text;strokeColor=none;fillColor=none;align=left;verticalAlign=top;spacingLeft=4;spacingRight=4;overflow=hidden;rotatable=0;points=[[0,0.5],[1,0.5]];portConstraint=eastwest;" parent="J88-ZStobgBlJwA_pP0x-59" vertex="1">
          <mxGeometry y="90" width="131" height="30" as="geometry" />
        </mxCell>
        <mxCell id="J88-ZStobgBlJwA_pP0x-61" style="line;strokeWidth=1;fillColor=none;align=left;verticalAlign=middle;spacingTop=-1;spacingLeft=3;spacingRight=3;rotatable=0;labelPosition=right;points=[];portConstraint=eastwest;strokeColor=inherit;" parent="J88-ZStobgBlJwA_pP0x-59" vertex="1">
          <mxGeometry y="120" width="131" height="3" as="geometry" />
        </mxCell>
        <mxCell id="J88-ZStobgBlJwA_pP0x-62" value="+RuneID(PK)" style="text;strokeColor=none;fillColor=none;align=left;verticalAlign=top;spacingLeft=4;spacingRight=4;overflow=hidden;rotatable=0;points=[[0,0.5],[1,0.5]];portConstraint=eastwest;" parent="J88-ZStobgBlJwA_pP0x-59" vertex="1">
          <mxGeometry y="123" width="131" height="27" as="geometry" />
        </mxCell>
        <mxCell id="J88-ZStobgBlJwA_pP0x-63" value="PlayerChampionProgression" style="swimlane;fontStyle=1;align=center;verticalAlign=top;childLayout=stackLayout;horizontal=1;startSize=35.55555555555556;horizontalStack=0;resizeParent=1;resizeParentMax=0;resizeLast=0;collapsible=0;marginBottom=0;" parent="1" vertex="1">
          <mxGeometry x="-360" y="268" width="212" height="166.43555555555554" as="geometry" />
        </mxCell>
        <mxCell id="J88-ZStobgBlJwA_pP0x-64" value="+MasteryLevel" style="text;strokeColor=none;fillColor=none;align=left;verticalAlign=top;spacingLeft=4;spacingRight=4;overflow=hidden;rotatable=0;points=[[0,0.5],[1,0.5]];portConstraint=eastwest;" parent="J88-ZStobgBlJwA_pP0x-63" vertex="1">
          <mxGeometry y="35.55555555555556" width="212" height="24.44" as="geometry" />
        </mxCell>
        <mxCell id="J88-ZStobgBlJwA_pP0x-65" value="+MatchesPlayed" style="text;strokeColor=none;fillColor=none;align=left;verticalAlign=top;spacingLeft=4;spacingRight=4;overflow=hidden;rotatable=0;points=[[0,0.5],[1,0.5]];portConstraint=eastwest;" parent="J88-ZStobgBlJwA_pP0x-63" vertex="1">
          <mxGeometry y="59.995555555555555" width="212" height="28.44" as="geometry" />
        </mxCell>
        <mxCell id="J88-ZStobgBlJwA_pP0x-67" style="line;strokeWidth=1;fillColor=none;align=left;verticalAlign=middle;spacingTop=-1;spacingLeft=3;spacingRight=3;rotatable=0;labelPosition=right;points=[];portConstraint=eastwest;strokeColor=inherit;" parent="J88-ZStobgBlJwA_pP0x-63" vertex="1">
          <mxGeometry y="88.43555555555555" width="212" height="18" as="geometry" />
        </mxCell>
        <mxCell id="MwXPO-5lnD02g6y1rOQa-16" value="+PlayerID(FK)" style="text;strokeColor=none;fillColor=none;align=left;verticalAlign=top;spacingLeft=4;spacingRight=4;overflow=hidden;rotatable=0;points=[[0,0.5],[1,0.5]];portConstraint=eastwest;" parent="J88-ZStobgBlJwA_pP0x-63" vertex="1">
          <mxGeometry y="106.43555555555555" width="212" height="30" as="geometry" />
        </mxCell>
        <mxCell id="MwXPO-5lnD02g6y1rOQa-17" value="+ChampionID(FK)" style="text;strokeColor=none;fillColor=none;align=left;verticalAlign=top;spacingLeft=4;spacingRight=4;overflow=hidden;rotatable=0;points=[[0,0.5],[1,0.5]];portConstraint=eastwest;" parent="J88-ZStobgBlJwA_pP0x-63" vertex="1">
          <mxGeometry y="136.43555555555554" width="212" height="30" as="geometry" />
        </mxCell>
        <mxCell id="J88-ZStobgBlJwA_pP0x-68" value="PlayerMatchStats" style="swimlane;fontStyle=1;align=center;verticalAlign=top;childLayout=stackLayout;horizontal=1;startSize=44.8;horizontalStack=0;resizeParent=1;resizeParentMax=0;resizeLast=0;collapsible=0;marginBottom=0;" parent="1" vertex="1">
          <mxGeometry x="-10" y="779" width="180" height="360" as="geometry" />
        </mxCell>
        <mxCell id="J88-ZStobgBlJwA_pP0x-69" value="+ActualRole" style="text;strokeColor=none;fillColor=none;align=left;verticalAlign=top;spacingLeft=4;spacingRight=4;overflow=hidden;rotatable=0;points=[[0,0.5],[1,0.5]];portConstraint=eastwest;" parent="J88-ZStobgBlJwA_pP0x-68" vertex="1">
          <mxGeometry y="44.8" width="180" height="25.2" as="geometry" />
        </mxCell>
        <mxCell id="MwXPO-5lnD02g6y1rOQa-7" value="+Kills" style="text;strokeColor=none;fillColor=none;align=left;verticalAlign=top;spacingLeft=4;spacingRight=4;overflow=hidden;rotatable=0;points=[[0,0.5],[1,0.5]];portConstraint=eastwest;" parent="J88-ZStobgBlJwA_pP0x-68" vertex="1">
          <mxGeometry y="70" width="180" height="30" as="geometry" />
        </mxCell>
        <mxCell id="MwXPO-5lnD02g6y1rOQa-8" value="+Deaths" style="text;strokeColor=none;fillColor=none;align=left;verticalAlign=top;spacingLeft=4;spacingRight=4;overflow=hidden;rotatable=0;points=[[0,0.5],[1,0.5]];portConstraint=eastwest;" parent="J88-ZStobgBlJwA_pP0x-68" vertex="1">
          <mxGeometry y="100" width="180" height="30" as="geometry" />
        </mxCell>
        <mxCell id="MwXPO-5lnD02g6y1rOQa-10" value="+Assists" style="text;strokeColor=none;fillColor=none;align=left;verticalAlign=top;spacingLeft=4;spacingRight=4;overflow=hidden;rotatable=0;points=[[0,0.5],[1,0.5]];portConstraint=eastwest;" parent="J88-ZStobgBlJwA_pP0x-68" vertex="1">
          <mxGeometry y="130" width="180" height="30" as="geometry" />
        </mxCell>
        <mxCell id="MwXPO-5lnD02g6y1rOQa-9" value="+GoldEarned" style="text;strokeColor=none;fillColor=none;align=left;verticalAlign=top;spacingLeft=4;spacingRight=4;overflow=hidden;rotatable=0;points=[[0,0.5],[1,0.5]];portConstraint=eastwest;" parent="J88-ZStobgBlJwA_pP0x-68" vertex="1">
          <mxGeometry y="160" width="180" height="30" as="geometry" />
        </mxCell>
        <mxCell id="J88-ZStobgBlJwA_pP0x-70" style="line;strokeWidth=1;fillColor=none;align=left;verticalAlign=middle;spacingTop=-1;spacingLeft=3;spacingRight=3;rotatable=0;labelPosition=right;points=[];portConstraint=eastwest;strokeColor=inherit;" parent="J88-ZStobgBlJwA_pP0x-68" vertex="1">
          <mxGeometry y="190" width="180" height="20" as="geometry" />
        </mxCell>
        <mxCell id="MwXPO-5lnD02g6y1rOQa-12" value="+PlayerMatchStatsID(PK)" style="text;strokeColor=none;fillColor=none;align=left;verticalAlign=top;spacingLeft=4;spacingRight=4;overflow=hidden;rotatable=0;points=[[0,0.5],[1,0.5]];portConstraint=eastwest;" parent="J88-ZStobgBlJwA_pP0x-68" vertex="1">
          <mxGeometry y="210" width="180" height="30" as="geometry" />
        </mxCell>
        <mxCell id="CPQnZLlLJy1fonjT0Zn6-1" value="+PlayerID(FK)" style="text;strokeColor=none;fillColor=none;align=left;verticalAlign=top;spacingLeft=4;spacingRight=4;overflow=hidden;rotatable=0;points=[[0,0.5],[1,0.5]];portConstraint=eastwest;" parent="J88-ZStobgBlJwA_pP0x-68" vertex="1">
          <mxGeometry y="240" width="180" height="30" as="geometry" />
        </mxCell>
        <mxCell id="qKFrRKC1FGye1HoA8hbB-3" value="+MatchID(FK)" style="text;strokeColor=none;fillColor=none;align=left;verticalAlign=top;spacingLeft=4;spacingRight=4;overflow=hidden;rotatable=0;points=[[0,0.5],[1,0.5]];portConstraint=eastwest;" parent="J88-ZStobgBlJwA_pP0x-68" vertex="1">
          <mxGeometry y="270" width="180" height="30" as="geometry" />
        </mxCell>
        <mxCell id="MwXPO-5lnD02g6y1rOQa-4" value="+TeamID(FK)" style="text;strokeColor=none;fillColor=none;align=left;verticalAlign=top;spacingLeft=4;spacingRight=4;overflow=hidden;rotatable=0;points=[[0,0.5],[1,0.5]];portConstraint=eastwest;" parent="J88-ZStobgBlJwA_pP0x-68" vertex="1">
          <mxGeometry y="300" width="180" height="30" as="geometry" />
        </mxCell>
        <mxCell id="qKFrRKC1FGye1HoA8hbB-2" value="+ChampionID(FK)" style="text;strokeColor=none;fillColor=none;align=left;verticalAlign=top;spacingLeft=4;spacingRight=4;overflow=hidden;rotatable=0;points=[[0,0.5],[1,0.5]];portConstraint=eastwest;" parent="J88-ZStobgBlJwA_pP0x-68" vertex="1">
          <mxGeometry y="330" width="180" height="30" as="geometry" />
        </mxCell>
        <mxCell id="qKFrRKC1FGye1HoA8hbB-8" value="1" style="text;html=1;align=center;verticalAlign=middle;resizable=0;points=[];autosize=1;strokeColor=none;fillColor=none;fontSize=15;" parent="1" vertex="1">
          <mxGeometry x="65" y="468" width="30" height="30" as="geometry" />
        </mxCell>
        <mxCell id="qKFrRKC1FGye1HoA8hbB-10" value="" style="endArrow=classic;html=1;rounded=0;entryX=0.454;entryY=1.032;entryDx=0;entryDy=0;entryPerimeter=0;exitX=1.181;exitY=1.314;exitDx=0;exitDy=0;exitPerimeter=0;" parent="1" source="qKFrRKC1FGye1HoA8hbB-11" target="J88-ZStobgBlJwA_pP0x-44" edge="1">
          <mxGeometry width="50" height="50" relative="1" as="geometry">
            <mxPoint x="50" y="580" as="sourcePoint" />
            <mxPoint x="160" y="530" as="targetPoint" />
            <Array as="points" />
          </mxGeometry>
        </mxCell>
        <mxCell id="qKFrRKC1FGye1HoA8hbB-12" value="&quot;participate in&quot;" style="edgeLabel;html=1;align=center;verticalAlign=middle;resizable=0;points=[];fontSize=15;" parent="qKFrRKC1FGye1HoA8hbB-10" vertex="1" connectable="0">
          <mxGeometry x="-0.112" relative="1" as="geometry">
            <mxPoint as="offset" />
          </mxGeometry>
        </mxCell>
        <mxCell id="qKFrRKC1FGye1HoA8hbB-11" value="*" style="text;html=1;align=center;verticalAlign=middle;resizable=0;points=[];autosize=1;strokeColor=none;fillColor=none;fontSize=17;" parent="1" vertex="1">
          <mxGeometry x="55" y="738" width="30" height="30" as="geometry" />
        </mxCell>
        <mxCell id="qKFrRKC1FGye1HoA8hbB-13" value="StructureStatus" style="swimlane;fontStyle=1;align=center;verticalAlign=top;childLayout=stackLayout;horizontal=1;startSize=30;horizontalStack=0;resizeParent=1;resizeParentMax=0;resizeLast=0;collapsible=0;marginBottom=0;" parent="1" vertex="1">
          <mxGeometry x="265" y="809" width="168" height="192" as="geometry" />
        </mxCell>
        <mxCell id="qKFrRKC1FGye1HoA8hbB-14" value="+CurrentHP" style="text;strokeColor=none;fillColor=none;align=left;verticalAlign=top;spacingLeft=4;spacingRight=4;overflow=hidden;rotatable=0;points=[[0,0.5],[1,0.5]];portConstraint=eastwest;" parent="qKFrRKC1FGye1HoA8hbB-13" vertex="1">
          <mxGeometry y="30" width="168" height="30" as="geometry" />
        </mxCell>
        <mxCell id="qKFrRKC1FGye1HoA8hbB-15" value="+IsDestroyed" style="text;strokeColor=none;fillColor=none;align=left;verticalAlign=top;spacingLeft=4;spacingRight=4;overflow=hidden;rotatable=0;points=[[0,0.5],[1,0.5]];portConstraint=eastwest;" parent="qKFrRKC1FGye1HoA8hbB-13" vertex="1">
          <mxGeometry y="60" width="168" height="30" as="geometry" />
        </mxCell>
        <mxCell id="qKFrRKC1FGye1HoA8hbB-16" style="line;strokeWidth=1;fillColor=none;align=left;verticalAlign=middle;spacingTop=-1;spacingLeft=3;spacingRight=3;rotatable=0;labelPosition=right;points=[];portConstraint=eastwest;strokeColor=inherit;" parent="qKFrRKC1FGye1HoA8hbB-13" vertex="1">
          <mxGeometry y="90" width="168" height="8" as="geometry" />
        </mxCell>
        <mxCell id="MwXPO-5lnD02g6y1rOQa-63" value="+StatusID(PK)" style="text;strokeColor=none;fillColor=none;align=left;verticalAlign=top;spacingLeft=4;spacingRight=4;overflow=hidden;rotatable=0;points=[[0,0.5],[1,0.5]];portConstraint=eastwest;" parent="qKFrRKC1FGye1HoA8hbB-13" vertex="1">
          <mxGeometry y="98" width="168" height="32" as="geometry" />
        </mxCell>
        <mxCell id="qKFrRKC1FGye1HoA8hbB-17" value="+MatchID(FK)" style="text;strokeColor=none;fillColor=none;align=left;verticalAlign=top;spacingLeft=4;spacingRight=4;overflow=hidden;rotatable=0;points=[[0,0.5],[1,0.5]];portConstraint=eastwest;" parent="qKFrRKC1FGye1HoA8hbB-13" vertex="1">
          <mxGeometry y="130" width="168" height="32" as="geometry" />
        </mxCell>
        <mxCell id="qKFrRKC1FGye1HoA8hbB-18" value="+StructureID(FK)" style="text;strokeColor=none;fillColor=none;align=left;verticalAlign=top;spacingLeft=4;spacingRight=4;overflow=hidden;rotatable=0;points=[[0,0.5],[1,0.5]];portConstraint=eastwest;" parent="qKFrRKC1FGye1HoA8hbB-13" vertex="1">
          <mxGeometry y="162" width="168" height="30" as="geometry" />
        </mxCell>
        <mxCell id="MwXPO-5lnD02g6y1rOQa-28" value="" style="endArrow=classic;html=1;rounded=0;exitX=0.75;exitY=0;exitDx=0;exitDy=0;" parent="1" source="J88-ZStobgBlJwA_pP0x-68" edge="1">
          <mxGeometry width="50" height="50" relative="1" as="geometry">
            <mxPoint x="160" y="741" as="sourcePoint" />
            <mxPoint x="210" y="691" as="targetPoint" />
          </mxGeometry>
        </mxCell>
        <mxCell id="MwXPO-5lnD02g6y1rOQa-29" value="“recorded in”" style="edgeLabel;html=1;align=center;verticalAlign=middle;resizable=0;points=[];fontSize=15;" parent="MwXPO-5lnD02g6y1rOQa-28" vertex="1" connectable="0">
          <mxGeometry x="0.1116" y="-5" relative="1" as="geometry">
            <mxPoint y="1" as="offset" />
          </mxGeometry>
        </mxCell>
        <mxCell id="MwXPO-5lnD02g6y1rOQa-30" value="" style="endArrow=classic;html=1;rounded=0;exitX=1;exitY=0.5;exitDx=0;exitDy=0;entryX=0.596;entryY=-0.039;entryDx=0;entryDy=0;entryPerimeter=0;" parent="1" source="J88-ZStobgBlJwA_pP0x-37" target="J88-ZStobgBlJwA_pP0x-50" edge="1">
          <mxGeometry width="50" height="50" relative="1" as="geometry">
            <mxPoint x="300" y="130" as="sourcePoint" />
            <mxPoint x="283" y="500" as="targetPoint" />
            <Array as="points">
              <mxPoint x="280" y="108" />
            </Array>
          </mxGeometry>
        </mxCell>
        <mxCell id="MwXPO-5lnD02g6y1rOQa-31" value="”contain“" style="edgeLabel;html=1;align=center;verticalAlign=middle;resizable=0;points=[];fontSize=15;" parent="MwXPO-5lnD02g6y1rOQa-30" vertex="1" connectable="0">
          <mxGeometry x="0.1777" y="-3" relative="1" as="geometry">
            <mxPoint as="offset" />
          </mxGeometry>
        </mxCell>
        <mxCell id="MwXPO-5lnD02g6y1rOQa-32" value="2" style="text;html=1;align=center;verticalAlign=middle;resizable=0;points=[];autosize=1;strokeColor=none;fillColor=none;fontSize=15;" parent="1" vertex="1">
          <mxGeometry x="235" y="78" width="30" height="30" as="geometry" />
        </mxCell>
        <mxCell id="MwXPO-5lnD02g6y1rOQa-33" value="1" style="text;html=1;align=center;verticalAlign=middle;resizable=0;points=[];autosize=1;strokeColor=none;fillColor=none;fontSize=15;" parent="1" vertex="1">
          <mxGeometry x="285" y="508" width="30" height="30" as="geometry" />
        </mxCell>
        <mxCell id="MwXPO-5lnD02g6y1rOQa-34" style="edgeStyle=orthogonalEdgeStyle;rounded=0;orthogonalLoop=1;jettySize=auto;html=1;exitX=0;exitY=0.5;exitDx=0;exitDy=0;entryX=0;entryY=0.5;entryDx=0;entryDy=0;" parent="1" source="MwXPO-5lnD02g6y1rOQa-9" target="J88-ZStobgBlJwA_pP0x-37" edge="1">
          <mxGeometry relative="1" as="geometry" />
        </mxCell>
        <mxCell id="MwXPO-5lnD02g6y1rOQa-37" value="”belongs to&quot;" style="edgeLabel;html=1;align=center;verticalAlign=middle;resizable=0;points=[];fontSize=15;" parent="MwXPO-5lnD02g6y1rOQa-34" vertex="1" connectable="0">
          <mxGeometry x="-0.1652" y="8" relative="1" as="geometry">
            <mxPoint as="offset" />
          </mxGeometry>
        </mxCell>
        <mxCell id="MwXPO-5lnD02g6y1rOQa-35" value="1" style="text;html=1;align=center;verticalAlign=middle;resizable=0;points=[];autosize=1;strokeColor=none;fillColor=none;fontSize=15;" parent="1" vertex="1">
          <mxGeometry x="65" y="78" width="30" height="30" as="geometry" />
        </mxCell>
        <mxCell id="MwXPO-5lnD02g6y1rOQa-36" value="*" style="text;html=1;align=center;verticalAlign=middle;resizable=0;points=[];autosize=1;strokeColor=none;fillColor=none;fontSize=18;" parent="1" vertex="1">
          <mxGeometry x="-40" y="942" width="30" height="40" as="geometry" />
        </mxCell>
        <mxCell id="MwXPO-5lnD02g6y1rOQa-38" style="edgeStyle=orthogonalEdgeStyle;rounded=0;orthogonalLoop=1;jettySize=auto;html=1;exitX=0;exitY=0.5;exitDx=0;exitDy=0;entryX=1.01;entryY=0.864;entryDx=0;entryDy=0;entryPerimeter=0;" parent="1" source="qKFrRKC1FGye1HoA8hbB-3" target="2ZnopNHrlmIwXBJzYE-5-2" edge="1">
          <mxGeometry relative="1" as="geometry" />
        </mxCell>
        <mxCell id="MwXPO-5lnD02g6y1rOQa-39" value="&quot;use&quot;" style="edgeLabel;html=1;align=center;verticalAlign=middle;resizable=0;points=[];fontSize=15;" parent="MwXPO-5lnD02g6y1rOQa-38" vertex="1" connectable="0">
          <mxGeometry x="-0.006" y="-4" relative="1" as="geometry">
            <mxPoint x="4" y="-4" as="offset" />
          </mxGeometry>
        </mxCell>
        <mxCell id="MwXPO-5lnD02g6y1rOQa-40" value="1" style="text;html=1;align=center;verticalAlign=middle;resizable=0;points=[];autosize=1;strokeColor=none;fillColor=none;fontSize=15;" parent="1" vertex="1">
          <mxGeometry x="-175" y="1028" width="30" height="30" as="geometry" />
        </mxCell>
        <mxCell id="MwXPO-5lnD02g6y1rOQa-41" value="*" style="text;html=1;align=center;verticalAlign=middle;resizable=0;points=[];autosize=1;strokeColor=none;fillColor=none;fontSize=18;" parent="1" vertex="1">
          <mxGeometry x="-45" y="1027" width="30" height="40" as="geometry" />
        </mxCell>
        <mxCell id="MwXPO-5lnD02g6y1rOQa-44" value="" style="endArrow=classic;html=1;rounded=0;exitX=1.009;exitY=1.186;exitDx=0;exitDy=0;exitPerimeter=0;entryX=0;entryY=0.5;entryDx=0;entryDy=0;" parent="1" source="J88-ZStobgBlJwA_pP0x-65" target="J88-ZStobgBlJwA_pP0x-42" edge="1">
          <mxGeometry width="50" height="50" relative="1" as="geometry">
            <mxPoint x="-60" y="410" as="sourcePoint" />
            <mxPoint x="-10" y="360" as="targetPoint" />
          </mxGeometry>
        </mxCell>
        <mxCell id="MwXPO-5lnD02g6y1rOQa-49" value="&quot;owns&quot;" style="edgeLabel;html=1;align=center;verticalAlign=middle;resizable=0;points=[];fontSize=15;" parent="MwXPO-5lnD02g6y1rOQa-44" vertex="1" connectable="0">
          <mxGeometry x="-0.0172" y="3" relative="1" as="geometry">
            <mxPoint x="-1" as="offset" />
          </mxGeometry>
        </mxCell>
        <mxCell id="MwXPO-5lnD02g6y1rOQa-47" value="1" style="text;html=1;align=center;verticalAlign=middle;resizable=0;points=[];autosize=1;strokeColor=none;fillColor=none;fontSize=15;" parent="1" vertex="1">
          <mxGeometry x="-5" y="333" width="30" height="30" as="geometry" />
        </mxCell>
        <mxCell id="MwXPO-5lnD02g6y1rOQa-48" value="*" style="text;html=1;align=center;verticalAlign=middle;resizable=0;points=[];autosize=1;strokeColor=none;fillColor=none;fontSize=18;" parent="1" vertex="1">
          <mxGeometry x="-150" y="336" width="30" height="40" as="geometry" />
        </mxCell>
        <mxCell id="MwXPO-5lnD02g6y1rOQa-50" style="edgeStyle=orthogonalEdgeStyle;rounded=0;orthogonalLoop=1;jettySize=auto;html=1;entryX=0.595;entryY=-0.001;entryDx=0;entryDy=0;entryPerimeter=0;" parent="1" source="J88-ZStobgBlJwA_pP0x-63" target="J88-ZStobgBlJwA_pP0x-45" edge="1">
          <mxGeometry relative="1" as="geometry">
            <mxPoint x="-255" y="790" as="targetPoint" />
          </mxGeometry>
        </mxCell>
        <mxCell id="MwXPO-5lnD02g6y1rOQa-53" value="&quot;owned by&quot;" style="edgeLabel;html=1;align=center;verticalAlign=middle;resizable=0;points=[];fontSize=15;" parent="MwXPO-5lnD02g6y1rOQa-50" vertex="1" connectable="0">
          <mxGeometry x="-0.1067" y="2" relative="1" as="geometry">
            <mxPoint y="-1" as="offset" />
          </mxGeometry>
        </mxCell>
        <mxCell id="MwXPO-5lnD02g6y1rOQa-51" value="1" style="text;html=1;align=center;verticalAlign=middle;resizable=0;points=[];autosize=1;strokeColor=none;fillColor=none;fontSize=15;" parent="1" vertex="1">
          <mxGeometry x="620" y="1330" width="30" height="30" as="geometry" />
        </mxCell>
        <mxCell id="MwXPO-5lnD02g6y1rOQa-52" value="*" style="text;html=1;align=center;verticalAlign=middle;resizable=0;points=[];autosize=1;strokeColor=none;fillColor=none;fontSize=18;" parent="1" vertex="1">
          <mxGeometry x="-258" y="433" width="30" height="40" as="geometry" />
        </mxCell>
        <mxCell id="MwXPO-5lnD02g6y1rOQa-54" style="edgeStyle=orthogonalEdgeStyle;rounded=0;orthogonalLoop=1;jettySize=auto;html=1;entryX=0.713;entryY=0.971;entryDx=0;entryDy=0;entryPerimeter=0;" parent="1" source="J88-ZStobgBlJwA_pP0x-54" target="qKFrRKC1FGye1HoA8hbB-2" edge="1">
          <mxGeometry relative="1" as="geometry" />
        </mxCell>
        <mxCell id="MwXPO-5lnD02g6y1rOQa-103" value="“equip&quot;" style="edgeLabel;html=1;align=center;verticalAlign=middle;resizable=0;points=[];fontSize=15;" parent="MwXPO-5lnD02g6y1rOQa-54" vertex="1" connectable="0">
          <mxGeometry x="-0.1632" relative="1" as="geometry">
            <mxPoint x="-6" y="-10" as="offset" />
          </mxGeometry>
        </mxCell>
        <mxCell id="MwXPO-5lnD02g6y1rOQa-55" style="edgeStyle=orthogonalEdgeStyle;rounded=0;orthogonalLoop=1;jettySize=auto;html=1;entryX=0.387;entryY=0.995;entryDx=0;entryDy=0;entryPerimeter=0;" parent="1" source="J88-ZStobgBlJwA_pP0x-59" target="qKFrRKC1FGye1HoA8hbB-2" edge="1">
          <mxGeometry relative="1" as="geometry" />
        </mxCell>
        <mxCell id="MwXPO-5lnD02g6y1rOQa-104" value="&quot;configure&quot;" style="edgeLabel;html=1;align=center;verticalAlign=middle;resizable=0;points=[];fontSize=15;" parent="MwXPO-5lnD02g6y1rOQa-55" vertex="1" connectable="0">
          <mxGeometry x="0.0422" y="-1" relative="1" as="geometry">
            <mxPoint x="-7" y="-12" as="offset" />
          </mxGeometry>
        </mxCell>
        <mxCell id="MwXPO-5lnD02g6y1rOQa-56" value="1" style="text;html=1;align=center;verticalAlign=middle;resizable=0;points=[];autosize=1;strokeColor=none;fillColor=none;fontSize=15;" parent="1" vertex="1">
          <mxGeometry x="122" y="1128" width="30" height="30" as="geometry" />
        </mxCell>
        <mxCell id="MwXPO-5lnD02g6y1rOQa-57" value="*" style="text;html=1;align=center;verticalAlign=middle;resizable=0;points=[];autosize=1;strokeColor=none;fillColor=none;fontSize=18;" parent="1" vertex="1">
          <mxGeometry x="177" y="1212" width="30" height="40" as="geometry" />
        </mxCell>
        <mxCell id="MwXPO-5lnD02g6y1rOQa-58" value="1" style="text;html=1;align=center;verticalAlign=middle;resizable=0;points=[];autosize=1;strokeColor=none;fillColor=none;fontSize=15;" parent="1" vertex="1">
          <mxGeometry x="26" y="1128" width="30" height="30" as="geometry" />
        </mxCell>
        <mxCell id="MwXPO-5lnD02g6y1rOQa-59" value="*" style="text;html=1;align=center;verticalAlign=middle;resizable=0;points=[];autosize=1;strokeColor=none;fillColor=none;fontSize=18;" parent="1" vertex="1">
          <mxGeometry x="-56" y="1212" width="30" height="40" as="geometry" />
        </mxCell>
        <mxCell id="MwXPO-5lnD02g6y1rOQa-64" style="edgeStyle=orthogonalEdgeStyle;rounded=0;orthogonalLoop=1;jettySize=auto;html=1;exitX=1;exitY=0.5;exitDx=0;exitDy=0;entryX=0.018;entryY=-0.124;entryDx=0;entryDy=0;entryPerimeter=0;" parent="1" source="qKFrRKC1FGye1HoA8hbB-15" target="J88-ZStobgBlJwA_pP0x-3" edge="1">
          <mxGeometry relative="1" as="geometry" />
        </mxCell>
        <mxCell id="MwXPO-5lnD02g6y1rOQa-65" value="&quot;record status&quot;" style="edgeLabel;html=1;align=center;verticalAlign=middle;resizable=0;points=[];fontSize=15;" parent="MwXPO-5lnD02g6y1rOQa-64" vertex="1" connectable="0">
          <mxGeometry x="0.0679" y="4" relative="1" as="geometry">
            <mxPoint x="-1" as="offset" />
          </mxGeometry>
        </mxCell>
        <mxCell id="MwXPO-5lnD02g6y1rOQa-66" value="1" style="text;html=1;align=center;verticalAlign=middle;resizable=0;points=[];autosize=1;strokeColor=none;fillColor=none;fontSize=15;" parent="1" vertex="1">
          <mxGeometry x="585" y="858" width="30" height="30" as="geometry" />
        </mxCell>
        <mxCell id="MwXPO-5lnD02g6y1rOQa-67" value="*" style="text;html=1;align=center;verticalAlign=middle;resizable=0;points=[];autosize=1;strokeColor=none;fillColor=none;fontSize=18;" parent="1" vertex="1">
          <mxGeometry x="435" y="859" width="30" height="40" as="geometry" />
        </mxCell>
        <mxCell id="MwXPO-5lnD02g6y1rOQa-69" value="" style="endArrow=classic;html=1;rounded=0;entryX=0.762;entryY=0.911;entryDx=0;entryDy=0;entryPerimeter=0;exitX=0.202;exitY=-0.012;exitDx=0;exitDy=0;exitPerimeter=0;" parent="1" source="qKFrRKC1FGye1HoA8hbB-13" target="J88-ZStobgBlJwA_pP0x-53" edge="1">
          <mxGeometry width="50" height="50" relative="1" as="geometry">
            <mxPoint x="335" y="790" as="sourcePoint" />
            <mxPoint x="255" y="750" as="targetPoint" />
            <Array as="points" />
          </mxGeometry>
        </mxCell>
        <mxCell id="MwXPO-5lnD02g6y1rOQa-72" value="&quot;happen in&#39;" style="edgeLabel;html=1;align=center;verticalAlign=middle;resizable=0;points=[];fontSize=15;" parent="MwXPO-5lnD02g6y1rOQa-69" vertex="1" connectable="0">
          <mxGeometry x="0.0123" y="-1" relative="1" as="geometry">
            <mxPoint as="offset" />
          </mxGeometry>
        </mxCell>
        <mxCell id="MwXPO-5lnD02g6y1rOQa-70" value="1" style="text;html=1;align=center;verticalAlign=middle;resizable=0;points=[];autosize=1;strokeColor=none;fillColor=none;fontSize=15;" parent="1" vertex="1">
          <mxGeometry x="298" y="689" width="30" height="30" as="geometry" />
        </mxCell>
        <mxCell id="MwXPO-5lnD02g6y1rOQa-71" value="*" style="text;html=1;align=center;verticalAlign=middle;resizable=0;points=[];autosize=1;strokeColor=none;fillColor=none;fontSize=18;" parent="1" vertex="1">
          <mxGeometry x="296" y="783" width="30" height="40" as="geometry" />
        </mxCell>
        <mxCell id="MwXPO-5lnD02g6y1rOQa-73" style="edgeStyle=orthogonalEdgeStyle;rounded=0;orthogonalLoop=1;jettySize=auto;html=1;entryX=1.026;entryY=-0.195;entryDx=0;entryDy=0;entryPerimeter=0;" parent="1" source="MwXPO-5lnD02g6y1rOQa-63" target="MwXPO-5lnD02g6y1rOQa-9" edge="1">
          <mxGeometry relative="1" as="geometry" />
        </mxCell>
        <mxCell id="MwXPO-5lnD02g6y1rOQa-76" value="&quot;destroy&quot;" style="edgeLabel;html=1;align=center;verticalAlign=middle;resizable=0;points=[];fontSize=15;" parent="MwXPO-5lnD02g6y1rOQa-73" vertex="1" connectable="0">
          <mxGeometry x="-0.062" y="2" relative="1" as="geometry">
            <mxPoint x="-2" y="9" as="offset" />
          </mxGeometry>
        </mxCell>
        <mxCell id="MwXPO-5lnD02g6y1rOQa-74" value="1" style="text;html=1;align=center;verticalAlign=middle;resizable=0;points=[];autosize=1;strokeColor=none;fillColor=none;fontSize=15;" parent="1" vertex="1">
          <mxGeometry x="166" y="892" width="30" height="30" as="geometry" />
        </mxCell>
        <mxCell id="MwXPO-5lnD02g6y1rOQa-75" value="0...*" style="text;html=1;align=center;verticalAlign=middle;resizable=0;points=[];autosize=1;strokeColor=none;fillColor=none;fontSize=15;" parent="1" vertex="1">
          <mxGeometry x="224" y="896" width="50" height="30" as="geometry" />
        </mxCell>
        <mxCell id="MwXPO-5lnD02g6y1rOQa-78" value="NeutralUnitSpawn" style="swimlane;fontStyle=1;align=center;verticalAlign=top;childLayout=stackLayout;horizontal=1;startSize=32;horizontalStack=0;resizeParent=1;resizeParentMax=0;resizeLast=0;collapsible=0;marginBottom=0;" parent="1" vertex="1">
          <mxGeometry x="480" y="497.3299999999999" width="173" height="221.67000000000002" as="geometry" />
        </mxCell>
        <mxCell id="MwXPO-5lnD02g6y1rOQa-80" value="+SpawnTime" style="text;strokeColor=none;fillColor=none;align=left;verticalAlign=top;spacingLeft=4;spacingRight=4;overflow=hidden;rotatable=0;points=[[0,0.5],[1,0.5]];portConstraint=eastwest;" parent="MwXPO-5lnD02g6y1rOQa-78" vertex="1">
          <mxGeometry y="32" width="173" height="30" as="geometry" />
        </mxCell>
        <mxCell id="MwXPO-5lnD02g6y1rOQa-81" value="+Location_x" style="text;strokeColor=none;fillColor=none;align=left;verticalAlign=top;spacingLeft=4;spacingRight=4;overflow=hidden;rotatable=0;points=[[0,0.5],[1,0.5]];portConstraint=eastwest;" parent="MwXPO-5lnD02g6y1rOQa-78" vertex="1">
          <mxGeometry y="62" width="173" height="30" as="geometry" />
        </mxCell>
        <mxCell id="MwXPO-5lnD02g6y1rOQa-82" value="+Location_y" style="text;strokeColor=none;fillColor=none;align=left;verticalAlign=top;spacingLeft=4;spacingRight=4;overflow=hidden;rotatable=0;points=[[0,0.5],[1,0.5]];portConstraint=eastwest;" parent="MwXPO-5lnD02g6y1rOQa-78" vertex="1">
          <mxGeometry y="92" width="173" height="30" as="geometry" />
        </mxCell>
        <mxCell id="MwXPO-5lnD02g6y1rOQa-83" style="line;strokeWidth=1;fillColor=none;align=left;verticalAlign=middle;spacingTop=-1;spacingLeft=3;spacingRight=3;rotatable=0;labelPosition=right;points=[];portConstraint=eastwest;strokeColor=inherit;" parent="MwXPO-5lnD02g6y1rOQa-78" vertex="1">
          <mxGeometry y="122" width="173" height="3.67" as="geometry" />
        </mxCell>
        <mxCell id="MwXPO-5lnD02g6y1rOQa-84" value="+SpawnID(PK)" style="text;strokeColor=none;fillColor=none;align=left;verticalAlign=top;spacingLeft=4;spacingRight=4;overflow=hidden;rotatable=0;points=[[0,0.5],[1,0.5]];portConstraint=eastwest;" parent="MwXPO-5lnD02g6y1rOQa-78" vertex="1">
          <mxGeometry y="125.67" width="173" height="32" as="geometry" />
        </mxCell>
        <mxCell id="MwXPO-5lnD02g6y1rOQa-86" value="+UnitID(FK）" style="text;strokeColor=none;fillColor=none;align=left;verticalAlign=top;spacingLeft=4;spacingRight=4;overflow=hidden;rotatable=0;points=[[0,0.5],[1,0.5]];portConstraint=eastwest;" parent="MwXPO-5lnD02g6y1rOQa-78" vertex="1">
          <mxGeometry y="157.67000000000002" width="173" height="32" as="geometry" />
        </mxCell>
        <mxCell id="MwXPO-5lnD02g6y1rOQa-85" value="+MatchID(FK)" style="text;strokeColor=none;fillColor=none;align=left;verticalAlign=top;spacingLeft=4;spacingRight=4;overflow=hidden;rotatable=0;points=[[0,0.5],[1,0.5]];portConstraint=eastwest;" parent="MwXPO-5lnD02g6y1rOQa-78" vertex="1">
          <mxGeometry y="189.67000000000002" width="173" height="32" as="geometry" />
        </mxCell>
        <mxCell id="MwXPO-5lnD02g6y1rOQa-87" value="NeutralUnitKill" style="swimlane;fontStyle=1;align=center;verticalAlign=top;childLayout=stackLayout;horizontal=1;startSize=32;horizontalStack=0;resizeParent=1;resizeParentMax=0;resizeLast=0;collapsible=0;marginBottom=0;" parent="1" vertex="1">
          <mxGeometry x="414" y="1050" width="173" height="221.67000000000002" as="geometry" />
        </mxCell>
        <mxCell id="MwXPO-5lnD02g6y1rOQa-88" value="+KillTime" style="text;strokeColor=none;fillColor=none;align=left;verticalAlign=top;spacingLeft=4;spacingRight=4;overflow=hidden;rotatable=0;points=[[0,0.5],[1,0.5]];portConstraint=eastwest;" parent="MwXPO-5lnD02g6y1rOQa-87" vertex="1">
          <mxGeometry y="32" width="173" height="30" as="geometry" />
        </mxCell>
        <mxCell id="MwXPO-5lnD02g6y1rOQa-89" value="+GoldEarned" style="text;strokeColor=none;fillColor=none;align=left;verticalAlign=top;spacingLeft=4;spacingRight=4;overflow=hidden;rotatable=0;points=[[0,0.5],[1,0.5]];portConstraint=eastwest;" parent="MwXPO-5lnD02g6y1rOQa-87" vertex="1">
          <mxGeometry y="62" width="173" height="30" as="geometry" />
        </mxCell>
        <mxCell id="MwXPO-5lnD02g6y1rOQa-90" value="+ExperienceEarned" style="text;strokeColor=none;fillColor=none;align=left;verticalAlign=top;spacingLeft=4;spacingRight=4;overflow=hidden;rotatable=0;points=[[0,0.5],[1,0.5]];portConstraint=eastwest;" parent="MwXPO-5lnD02g6y1rOQa-87" vertex="1">
          <mxGeometry y="92" width="173" height="30" as="geometry" />
        </mxCell>
        <mxCell id="MwXPO-5lnD02g6y1rOQa-91" style="line;strokeWidth=1;fillColor=none;align=left;verticalAlign=middle;spacingTop=-1;spacingLeft=3;spacingRight=3;rotatable=0;labelPosition=right;points=[];portConstraint=eastwest;strokeColor=inherit;" parent="MwXPO-5lnD02g6y1rOQa-87" vertex="1">
          <mxGeometry y="122" width="173" height="3.67" as="geometry" />
        </mxCell>
        <mxCell id="MwXPO-5lnD02g6y1rOQa-92" value="+KillID(PK)" style="text;strokeColor=none;fillColor=none;align=left;verticalAlign=top;spacingLeft=4;spacingRight=4;overflow=hidden;rotatable=0;points=[[0,0.5],[1,0.5]];portConstraint=eastwest;" parent="MwXPO-5lnD02g6y1rOQa-87" vertex="1">
          <mxGeometry y="125.67" width="173" height="32" as="geometry" />
        </mxCell>
        <mxCell id="MwXPO-5lnD02g6y1rOQa-93" value="+UnitID(FK）" style="text;strokeColor=none;fillColor=none;align=left;verticalAlign=top;spacingLeft=4;spacingRight=4;overflow=hidden;rotatable=0;points=[[0,0.5],[1,0.5]];portConstraint=eastwest;" parent="MwXPO-5lnD02g6y1rOQa-87" vertex="1">
          <mxGeometry y="157.67000000000002" width="173" height="32" as="geometry" />
        </mxCell>
        <mxCell id="MwXPO-5lnD02g6y1rOQa-94" value="+PlayMatchStats(FK)" style="text;strokeColor=none;fillColor=none;align=left;verticalAlign=top;spacingLeft=4;spacingRight=4;overflow=hidden;rotatable=0;points=[[0,0.5],[1,0.5]];portConstraint=eastwest;" parent="MwXPO-5lnD02g6y1rOQa-87" vertex="1">
          <mxGeometry y="189.67000000000002" width="173" height="32" as="geometry" />
        </mxCell>
        <mxCell id="MwXPO-5lnD02g6y1rOQa-95" style="edgeStyle=orthogonalEdgeStyle;rounded=0;orthogonalLoop=1;jettySize=auto;html=1;entryX=1;entryY=0.5;entryDx=0;entryDy=0;" parent="1" target="J88-ZStobgBlJwA_pP0x-51" edge="1">
          <mxGeometry relative="1" as="geometry">
            <mxPoint x="480.63" y="614.44" as="sourcePoint" />
            <mxPoint x="345.996" y="613.29" as="targetPoint" />
            <Array as="points">
              <mxPoint x="346" y="614" />
              <mxPoint x="346" y="610" />
            </Array>
          </mxGeometry>
        </mxCell>
        <mxCell id="MwXPO-5lnD02g6y1rOQa-113" value="“spawns&quot;" style="edgeLabel;html=1;align=center;verticalAlign=middle;resizable=0;points=[];fontSize=15;" parent="MwXPO-5lnD02g6y1rOQa-95" vertex="1" connectable="0">
          <mxGeometry x="0.072" y="4" relative="1" as="geometry">
            <mxPoint y="-3" as="offset" />
          </mxGeometry>
        </mxCell>
        <mxCell id="MwXPO-5lnD02g6y1rOQa-97" value="" style="endArrow=classic;html=1;rounded=0;entryX=0;entryY=0.5;entryDx=0;entryDy=0;exitX=1.002;exitY=-0.219;exitDx=0;exitDy=0;exitPerimeter=0;" parent="1" source="MwXPO-5lnD02g6y1rOQa-84" target="i6gBcuLC5pxXNLLgpZ5P-1" edge="1">
          <mxGeometry width="50" height="50" relative="1" as="geometry">
            <mxPoint x="653" y="610" as="sourcePoint" />
            <mxPoint x="720" y="577.17" as="targetPoint" />
          </mxGeometry>
        </mxCell>
        <mxCell id="MwXPO-5lnD02g6y1rOQa-114" value="&quot;spawned in&quot;" style="edgeLabel;html=1;align=center;verticalAlign=middle;resizable=0;points=[];fontSize=15;" parent="MwXPO-5lnD02g6y1rOQa-97" vertex="1" connectable="0">
          <mxGeometry x="-0.0389" y="-5" relative="1" as="geometry">
            <mxPoint y="7" as="offset" />
          </mxGeometry>
        </mxCell>
        <mxCell id="MwXPO-5lnD02g6y1rOQa-98" value="1" style="text;html=1;align=center;verticalAlign=middle;resizable=0;points=[];autosize=1;strokeColor=none;fillColor=none;fontSize=15;" parent="1" vertex="1">
          <mxGeometry x="345" y="588" width="30" height="30" as="geometry" />
        </mxCell>
        <mxCell id="MwXPO-5lnD02g6y1rOQa-99" value="*" style="text;html=1;align=center;verticalAlign=middle;resizable=0;points=[];autosize=1;strokeColor=none;fillColor=none;fontSize=18;" parent="1" vertex="1">
          <mxGeometry x="445" y="588" width="30" height="40" as="geometry" />
        </mxCell>
        <mxCell id="MwXPO-5lnD02g6y1rOQa-100" value="1" style="text;html=1;align=center;verticalAlign=middle;resizable=0;points=[];autosize=1;strokeColor=none;fillColor=none;fontSize=15;" parent="1" vertex="1">
          <mxGeometry x="725" y="587" width="30" height="30" as="geometry" />
        </mxCell>
        <mxCell id="MwXPO-5lnD02g6y1rOQa-102" value="*" style="text;html=1;align=center;verticalAlign=middle;resizable=0;points=[];autosize=1;strokeColor=none;fillColor=none;fontSize=18;" parent="1" vertex="1">
          <mxGeometry x="648" y="590" width="30" height="40" as="geometry" />
        </mxCell>
        <mxCell id="MwXPO-5lnD02g6y1rOQa-106" value="" style="endArrow=classic;html=1;rounded=0;entryX=1.01;entryY=0.043;entryDx=0;entryDy=0;entryPerimeter=0;exitX=-0.012;exitY=-0.343;exitDx=0;exitDy=0;exitPerimeter=0;" parent="1" source="MwXPO-5lnD02g6y1rOQa-88" target="MwXPO-5lnD02g6y1rOQa-4" edge="1">
          <mxGeometry width="50" height="50" relative="1" as="geometry">
            <mxPoint x="410" y="1120" as="sourcePoint" />
            <mxPoint x="460" y="1070" as="targetPoint" />
          </mxGeometry>
        </mxCell>
        <mxCell id="MwXPO-5lnD02g6y1rOQa-118" value="&quot;kills&quot;" style="edgeLabel;html=1;align=center;verticalAlign=middle;resizable=0;points=[];fontSize=15;" parent="MwXPO-5lnD02g6y1rOQa-106" vertex="1" connectable="0">
          <mxGeometry y="1" relative="1" as="geometry">
            <mxPoint as="offset" />
          </mxGeometry>
        </mxCell>
        <mxCell id="MwXPO-5lnD02g6y1rOQa-107" value="" style="endArrow=classic;html=1;rounded=0;entryX=0.556;entryY=1.119;entryDx=0;entryDy=0;entryPerimeter=0;exitX=1.007;exitY=-0.057;exitDx=0;exitDy=0;exitPerimeter=0;" parent="1" source="MwXPO-5lnD02g6y1rOQa-90" target="J88-ZStobgBlJwA_pP0x-21" edge="1">
          <mxGeometry width="50" height="50" relative="1" as="geometry">
            <mxPoint x="410" y="840" as="sourcePoint" />
            <mxPoint x="460" y="790" as="targetPoint" />
            <Array as="points">
              <mxPoint x="856" y="1140" />
            </Array>
          </mxGeometry>
        </mxCell>
        <mxCell id="MwXPO-5lnD02g6y1rOQa-119" value="&quot;killed by&quot;" style="edgeLabel;html=1;align=center;verticalAlign=middle;resizable=0;points=[];fontSize=15;" parent="MwXPO-5lnD02g6y1rOQa-107" vertex="1" connectable="0">
          <mxGeometry x="-0.5308" y="-12" relative="1" as="geometry">
            <mxPoint x="-1" as="offset" />
          </mxGeometry>
        </mxCell>
        <mxCell id="MwXPO-5lnD02g6y1rOQa-108" value="1" style="text;html=1;align=center;verticalAlign=middle;resizable=0;points=[];autosize=1;strokeColor=none;fillColor=none;fontSize=15;" parent="1" vertex="1">
          <mxGeometry x="175" y="1044" width="30" height="30" as="geometry" />
        </mxCell>
        <mxCell id="MwXPO-5lnD02g6y1rOQa-109" value="*" style="text;html=1;align=center;verticalAlign=middle;resizable=0;points=[];autosize=1;strokeColor=none;fillColor=none;fontSize=18;" parent="1" vertex="1">
          <mxGeometry x="384" y="1045" width="30" height="40" as="geometry" />
        </mxCell>
        <mxCell id="MwXPO-5lnD02g6y1rOQa-111" value="1" style="text;html=1;align=center;verticalAlign=middle;resizable=0;points=[];autosize=1;strokeColor=none;fillColor=none;fontSize=15;" parent="1" vertex="1">
          <mxGeometry x="860" y="702" width="30" height="30" as="geometry" />
        </mxCell>
        <mxCell id="MwXPO-5lnD02g6y1rOQa-112" value="*" style="text;html=1;align=center;verticalAlign=middle;resizable=0;points=[];autosize=1;strokeColor=none;fillColor=none;fontSize=18;" parent="1" vertex="1">
          <mxGeometry x="585" y="1136" width="30" height="40" as="geometry" />
        </mxCell>
      </root>
    </mxGraphModel>
  </diagram>
</mxfile>
